<svg width="48" height="48" viewBox="0 0 48 48" fill="none" xmlns="http://www.w3.org/2000/svg">
<circle id="ring-outer" cx="24" cy="24" r="22.9091" stroke="#0101011A" stroke-width="2.18182"/>
<circle id="ring-middle" cx="24" cy="24" r="17.9091" stroke="#01010133" stroke-width="2.18182"/>
<circle id="ring-inner" cx="24" cy="24" r="12.9091" stroke="#01010199" stroke-width="2.18182"/>
<path id="bell" d="M22.0157 30.75C22.5446 31.2168 23.2392 31.5 24.0001 31.5C24.7609 31.5 25.4556 31.2168 25.9844 30.75M28.5001 21C28.5001 19.8065 28.026 18.6619 27.1821 17.818C26.3381 16.9741 25.1935 16.5 24.0001 16.5C22.8066 16.5 21.662 16.9741 20.8181 17.818C19.9742 18.6619 19.5001 19.8065 19.5001 21C19.5001 23.3176 18.9154 24.9045 18.2623 25.9541C17.7114 26.8394 17.436 27.2821 17.4461 27.4056C17.4573 27.5423 17.4862 27.5944 17.5964 27.6762C17.6959 27.75 18.1445 27.75 19.0417 27.75H28.9584C29.8556 27.75 30.3042 27.75 30.4037 27.6762C30.5139 27.5944 30.5429 27.5423 30.5541 27.4056C30.5642 27.2821 30.2887 26.8394 29.7378 25.9541C29.0847 24.9045 28.5001 23.3176 28.5001 21Z" stroke="#010101" stroke-width="1.5" stroke-linecap="round" stroke-linejoin="round"/>
</svg>
