<svg width="26" height="26" viewBox="0 0 26 26" fill="none" xmlns="http://www.w3.org/2000/svg">
<path d="M13 23C18.5228 23 23 18.5228 23 13C23 7.47715 18.5228 3 13 3C7.47715 3 3 7.47715 3 13C3 18.5228 7.47715 23 13 23Z" stroke="#70695F" stroke-width="2" stroke-linecap="round" stroke-linejoin="round"/>
<path d="M10.09 10C10.3251 9.33169 10.7891 8.76813 11.4 8.40915C12.0108 8.05018 12.7289 7.91896 13.4272 8.03873C14.1255 8.15851 14.7588 8.52154 15.2151 9.06355C15.6713 9.60555 15.9211 10.2915 15.92 11C15.92 13 12.92 14 12.92 14" stroke="#70695F" stroke-width="2" stroke-linecap="round" stroke-linejoin="round"/>
<path d="M13 18H13.01" stroke="#70695F" stroke-width="2" stroke-linecap="round" stroke-linejoin="round"/>
</svg>
