<svg width="48" height="44" viewBox="0 0 48 44" fill="none" xmlns="http://www.w3.org/2000/svg">
<path d="M40.2362 8.56859C42.3414 11.2075 43.7765 14.3169 44.4188 17.631C45.2046 18.0115 45.8672 18.6057 46.3309 19.3455C46.7946 20.0852 47.0405 20.9406 47.0405 21.8136C47.0405 22.6867 46.7946 23.5421 46.3309 24.2818C45.8672 25.0216 45.2046 25.6157 44.4188 25.9963C43.4157 30.675 40.8384 34.8682 37.117 37.8763C33.3957 40.8843 28.7554 42.5252 23.9703 42.5252C19.1853 42.5252 14.5449 40.8843 10.8236 37.8763C7.10222 34.8682 4.52494 30.675 3.52179 25.9963C2.73605 25.6157 2.07339 25.0216 1.60973 24.2818C1.14606 23.5421 0.900146 22.6867 0.900146 21.8136C0.900146 20.9406 1.14606 20.0852 1.60973 19.3455C2.07339 18.6057 2.73605 18.0115 3.52179 17.631C4.48441 12.9151 7.04426 8.67552 10.7695 5.62764C14.4946 2.57975 19.1571 0.910106 23.9703 0.900391C28.6177 0.900391 32.1032 3.45646 32.1032 6.70963C32.1032 9.9628 30.0119 12.5189 27.4559 12.5189C25.5969 12.5189 23.9703 11.5894 23.9703 10.1952" stroke="#E5D5C5" stroke-width="1.8004" stroke-linecap="round" stroke-linejoin="round"/>
<path d="M32.1153 17.3061C34.1779 17.1232 36.0396 18.4316 36.8153 20.3126C36.9868 20.7281 37.1348 21.2729 36.7024 21.6042C36.5144 21.7464 36.2782 21.8091 36.0446 21.7788C35.7134 21.7332 35.4348 21.4966 35.3316 21.1841C34.9666 20.0772 34.0935 19.1436 32.8858 18.9809C31.6362 18.7719 30.3812 19.5376 29.8429 20.6535C29.6081 21.1402 29.5759 21.7042 28.9157 21.7839C28.6716 21.8129 28.4265 21.7384 28.2397 21.5784C27.5095 20.9645 28.5277 19.4756 28.9671 18.9439C29.7599 17.9847 30.8724 17.4084 32.1153 17.3061Z" fill="#E5D5C5"/>
<path d="M15.0701 17.3015C15.1924 17.2838 15.5598 17.288 15.687 17.2957C16.934 17.3712 18.01 17.9692 18.8328 18.8962C19.2042 19.3145 19.9304 20.4653 19.8792 21.0459C19.8602 21.2677 19.7491 21.4712 19.5732 21.6064C19.2571 21.8533 18.8271 21.8498 18.513 21.6047C18.2548 21.4031 18.2287 21.1085 18.1013 20.831C17.8276 20.2345 17.3891 19.7049 16.8328 19.356C16.4661 19.1246 16.1481 19.0364 15.7318 18.9676C14.4019 18.7821 13.087 19.6945 12.6342 20.9325C12.4807 21.352 12.3476 21.7189 11.834 21.7798C11.6027 21.8077 11.3699 21.7419 11.1871 21.5968C11.0103 21.4571 10.8995 21.2496 10.8816 21.0242C10.84 20.4457 11.513 19.3622 11.8943 18.9289C12.7581 17.947 13.7788 17.4038 15.0701 17.3015Z" fill="#E5D5C5"/>
<path fill-rule="evenodd" clip-rule="evenodd" d="M23.2007 26.1259C25.3835 26.0429 27.6663 26.2305 29.8344 26.4755C31.3586 26.6477 32.0142 26.7405 31.7993 28.4902C31.6204 29.8619 31.067 31.1585 30.1997 32.2363C28.8924 33.8985 26.9694 34.9635 24.8667 35.1894C24.7643 35.2036 24.6716 35.2109 24.5688 35.2177C22.4771 35.3656 20.4126 34.6726 18.8335 33.2929C17.2932 31.9413 16.3142 30.0651 16.1714 28.0126C16.0919 27.5258 16.3834 26.7889 16.9184 26.6865C18.9221 26.3039 21.1821 26.1864 23.2007 26.1259ZM24.3149 27.7187C23.7431 27.7177 23.0796 27.7116 22.5093 27.7392C21.4022 27.7806 20.3064 27.8331 19.2055 27.9667C18.8824 28.0059 18.2758 28.0581 17.9731 28.123C18.2693 29.9042 19.0295 31.3485 20.5249 32.4238C21.8572 33.3906 23.5242 33.7775 25.146 33.495C25.2925 33.4706 25.4367 33.4384 25.5825 33.4111C28.2129 32.6868 29.825 30.7878 30.2807 28.1259C28.3044 27.8479 26.3106 27.7117 24.3149 27.7187Z" fill="#E5D5C5"/>
</svg>
