<svg width="48" height="44" viewBox="0 0 48 44" fill="none" xmlns="http://www.w3.org/2000/svg">
<path d="M44.4188 17.631C45.2046 18.0115 45.8672 18.6057 46.3309 19.3455C46.7946 20.0852 47.0405 20.9406 47.0405 21.8136C47.0405 22.6867 46.7946 23.5421 46.3309 24.2818C45.8672 25.0216 45.2046 25.6157 44.4188 25.9963C43.4157 30.675 40.8384 34.8682 37.117 37.8763C33.3957 40.8843 28.7554 42.5252 23.9703 42.5252C19.1853 42.5252 14.5449 40.8843 10.8236 37.8763C7.10222 34.8682 4.52494 30.675 3.52179 25.9963C2.73605 25.6157 2.07339 25.0216 1.60973 24.2818C1.14606 23.5421 0.900146 22.6867 0.900146 21.8136C0.900146 20.9406 1.14606 20.0852 1.60973 19.3455C2.07339 18.6057 2.73605 18.0115 3.52179 17.631C4.48441 12.9151 7.04426 8.67552 10.7695 5.62764C14.4946 2.57975 19.1571 0.910106 23.9703 0.900391C28.6177 0.900391 32.1032 3.45646 32.1032 6.70963C32.1032 9.9628 30.0119 12.5189 27.4559 12.5189C25.5969 12.5189 23.9703 11.5894 23.9703 10.1952" stroke="#E5D5C5" stroke-width="1.8004" stroke-linecap="round" stroke-linejoin="round"/>
<path d="M15.7489 21.7607C13.6923 21.9431 11.8355 20.6385 11.0614 18.7617C10.9758 18.5543 10.8968 18.3161 10.8925 18.0889C10.8881 17.8623 10.9575 17.6472 11.1698 17.4844C11.3553 17.3441 11.5888 17.2826 11.8192 17.3125C12.1455 17.3576 12.4206 17.5904 12.5223 17.8984C12.8883 19.0084 13.7642 19.9468 14.9774 20.1104C16.2331 20.3204 17.4927 19.5508 18.0331 18.4307C18.092 18.3086 18.1383 18.1817 18.1844 18.0596C18.2308 17.937 18.2774 17.8188 18.3368 17.7139C18.3961 17.6091 18.4687 17.5176 18.5663 17.4473C18.6639 17.3769 18.7878 17.3273 18.9511 17.3076C19.1918 17.2791 19.4338 17.352 19.618 17.5098C19.7972 17.6604 19.8696 17.8652 19.87 18.0967C19.8703 18.3285 19.798 18.5869 19.6893 18.8437C19.4718 19.3577 19.1078 19.8626 18.8885 20.1279C18.1472 21.0247 17.1257 21.5857 15.9794 21.7363L15.7489 21.7607Z" fill="#E5D5C5" stroke="#E5D5C5" stroke-width="0.0242141"/>
<path d="M32.1788 21.7715C30.9355 21.6962 29.8621 21.0997 29.0411 20.1748C28.8562 19.9664 28.5826 19.5749 28.3615 19.1631C28.2509 18.9573 28.1534 18.7469 28.087 18.5518C28.0206 18.3563 27.9856 18.1768 27.9982 18.0342C28.0169 17.8159 28.126 17.6156 28.299 17.4824L28.2999 17.4824C28.6116 17.2391 29.0352 17.2427 29.3448 17.4844C29.4714 17.5832 29.5416 17.7047 29.5958 17.8369C29.623 17.9033 29.6466 17.973 29.671 18.043C29.6954 18.1126 29.7211 18.1832 29.7531 18.2529C30.0276 18.8512 30.4672 19.3831 31.0255 19.7334C31.3018 19.9077 31.5511 20.0015 31.8341 20.0664L32.132 20.123L32.382 20.1455C33.6297 20.1938 34.8162 19.3153 35.2423 18.1504C35.3192 17.9403 35.3907 17.7456 35.506 17.5957C35.6206 17.4467 35.7791 17.3416 36.0323 17.3115C36.2604 17.284 36.4907 17.3491 36.671 17.4922C36.8449 17.6297 36.9541 17.8339 36.9718 18.0557C36.982 18.198 36.9479 18.3724 36.8849 18.5615C36.822 18.7504 36.7303 18.9531 36.6251 19.1514C36.4148 19.548 36.1519 19.9268 35.962 20.1426C35.1001 21.1222 34.0819 21.6636 32.7941 21.7656L32.7931 21.7656C32.7328 21.7743 32.6114 21.7781 32.4884 21.7783C32.3655 21.7785 32.2421 21.7753 32.1788 21.7715Z" fill="#E5D5C5" stroke="#E5D5C5" stroke-width="0.0242141"/>
<circle cx="23.6301" cy="29.4818" r="5.17614" stroke="#E5D5C5" stroke-width="1.8004" stroke-linecap="round" stroke-linejoin="round"/>
<circle cx="23.6302" cy="29.4818" r="0.675149" fill="#E5D5C5" stroke="#E5D5C5" stroke-width="1.8004" stroke-linecap="round" stroke-linejoin="round"/>
<path d="M40.751 2.83057C40.9941 2.80768 41.2426 2.79718 41.4336 2.86768C41.5255 2.90166 41.6007 2.95347 41.6562 3.03076C41.7122 3.10858 41.7542 3.22014 41.7646 3.3833C41.7672 3.42306 41.7556 3.50092 41.7305 3.58643C41.7053 3.67205 41.6735 3.74165 41.6504 3.77197C41.0268 4.58911 40.3119 5.31787 39.6416 6.11572C39.4249 6.37354 39.2133 6.62281 38.9883 6.85596L38.7686 7.0835L39.082 7.04639C39.8494 6.95501 40.6294 6.9317 41.4102 6.87256C41.5793 6.85975 41.7594 6.84071 41.9336 6.8501C42.1073 6.85947 42.2577 6.89659 42.3701 6.98291H42.3711C42.4684 7.05684 42.5399 7.16091 42.5762 7.27881L42.6006 7.40088C42.6112 7.52204 42.5712 7.6696 42.4932 7.79541C42.4147 7.92193 42.3087 8.00835 42.2031 8.03271C41.7993 8.12558 41.3423 8.13995 40.9082 8.17432L38.502 8.35791L38.498 8.35889C38.4065 8.36902 38.281 8.37437 38.1484 8.38232C38.0195 8.39006 37.8825 8.40012 37.7812 8.41846C37.3871 8.4897 37.0759 8.37366 36.9199 8.17432C36.7874 8.0048 36.747 7.74815 36.8994 7.43408L36.9766 7.29639C37.0421 7.19334 37.1421 7.07365 37.2529 6.94775C37.3607 6.82537 37.4805 6.69365 37.5762 6.58057L37.5771 6.58154C38.2183 5.83379 38.8651 5.09128 39.5186 4.35498L39.7246 4.12256L39.418 4.16846C39.1182 4.21354 38.8002 4.23534 38.4766 4.25537C38.1545 4.27531 37.8256 4.294 37.5127 4.33252C37.3839 4.34836 37.2451 4.36414 37.1133 4.35693C36.9811 4.3497 36.8687 4.32001 36.7861 4.25635C36.5302 4.059 36.4556 3.74377 36.5957 3.46924L36.6689 3.354C36.7354 3.26824 36.8262 3.20733 36.9277 3.1792L36.9287 3.17822C37.0354 3.14791 37.2936 3.11988 37.5742 3.09619L38.2773 3.04346L40.75 2.83057H40.751Z" fill="#E5D5C5" stroke="#E5D5C5" stroke-width="0.22505"/>
<path d="M42.684 10.9199C42.8557 10.9252 42.9412 10.9621 42.9945 11.0117C43.0479 11.0616 43.0838 11.1398 43.1234 11.2686C43.0739 11.4482 42.9545 11.6038 42.7943 11.7559C42.7105 11.8354 42.6187 11.9119 42.5238 11.9893C42.4298 12.0659 42.3314 12.1451 42.2416 12.2256C42.0278 12.4171 41.8077 12.603 41.5863 12.791C41.3651 12.9788 41.142 13.1684 40.9261 13.3652L40.7113 13.5615H41.0023C41.1063 13.5613 41.2873 13.5577 41.5013 13.5537C41.7165 13.5497 41.9673 13.5455 42.2123 13.5449C42.4574 13.5444 42.6955 13.5477 42.8871 13.5576C42.983 13.5626 43.0662 13.5686 43.1312 13.5771C43.1996 13.5861 43.2371 13.5961 43.2513 13.6025C43.3661 13.6544 43.4554 13.7456 43.4896 13.8447C43.5188 13.9298 43.4937 14.0089 43.4252 14.124C43.3706 14.2155 43.2921 14.2471 43.1429 14.2861C42.1332 14.2701 41.1076 14.2944 40.1029 14.2891C39.9494 14.2883 39.8225 14.297 39.6957 14.2832C39.5756 14.2701 39.4719 14.2374 39.3802 14.1611L39.3793 14.1602L39.3226 14.1025C39.29 14.0611 39.2677 14.0145 39.2572 13.9658L39.2504 13.8916C39.2514 13.84 39.2758 13.773 39.3295 13.6914C39.3823 13.6112 39.4574 13.5263 39.5433 13.4414C39.7176 13.2692 39.9163 13.1157 40.0531 12.9961L40.0541 12.9951C40.492 12.6093 40.9354 12.2279 41.3832 11.8516L41.6185 11.6543L41.3109 11.6533C40.7746 11.652 40.1077 11.6809 39.6049 11.6396C39.3743 11.6207 39.2343 11.4453 39.2269 11.2812C39.2234 11.2015 39.2504 11.1226 39.3177 11.0586C39.3856 10.9942 39.5024 10.9372 39.6888 10.9219C40.3374 10.9258 40.9858 10.9257 41.6342 10.9219C41.9891 10.9199 42.3357 10.9092 42.684 10.9199Z" fill="#E5D5C5" stroke="#E5D5C5" stroke-width="0.22505"/>
</svg>
