<svg width="20" height="20" viewBox="0 0 20 20" fill="none" xmlns="http://www.w3.org/2000/svg">
<path fill-rule="evenodd" clip-rule="evenodd" d="M11.6949 15.9111C12.6919 14.2946 13.2715 12.4967 13.4243 10.665H16.1199C15.8072 13.1572 14.0401 15.201 11.6949 15.9111ZM9.87894 15.7857C8.74494 14.2512 8.07871 12.4802 7.90231 10.665H11.8485C11.6744 12.4794 11.0106 14.2504 9.87894 15.7857ZM3.62934 10.665H6.32575C6.4801 12.4975 7.06284 14.2969 8.06297 15.9134C5.71385 15.2056 3.94276 13.1604 3.62934 10.665ZM7.7393 3.95243C6.8636 5.55396 6.38953 7.31219 6.30527 9.08869H3.62934C3.9278 6.71003 5.5532 4.74453 7.7393 3.95243ZM9.84902 3.57252C9.85611 3.56306 9.86318 3.55352 9.87027 3.54406C9.87735 3.55352 9.88365 3.56306 9.89074 3.57252C11.0996 5.21898 11.7595 7.13879 11.869 9.08869H7.88027C7.98737 7.13958 8.64415 5.22056 9.84902 3.57252ZM16.1199 9.08869H13.444C13.3573 7.31061 12.8801 5.5515 12.0005 3.94839C14.1921 4.73891 15.8214 6.70609 16.1199 9.08869ZM10.5483 2.02923C5.89183 1.63358 2 5.30644 2 9.87697C2 14.1582 5.41381 17.626 9.64662 17.7466C14.1173 17.8759 17.75 14.2812 17.75 9.87697C17.75 5.81165 14.6536 2.37996 10.5483 2.02923Z" fill="#70695F"/>
</svg>
